<?xml version="1.0" standalone="no"?>
<!DOCTYPE svg PUBLIC "-//W3C//DTD SVG 20010904//EN"
 "http://www.w3.org/TR/2001/REC-SVG-20010904/DTD/svg10.dtd">
<svg version="1.0" xmlns="http://www.w3.org/2000/svg"
 width="350.000000pt" height="350.000000pt" viewBox="0 0 350.000000 350.000000"
 preserveAspectRatio="xMidYMid meet">
<metadata>
Created by potrace 1.11, written by Peter Selinger 2001-2013
</metadata>
<g transform="translate(0.000000,350.000000) scale(0.100000,-0.100000)"
fill="#000000" stroke="none">
<path d="M1827 3114 l6 -36 -34 18 c-53 27 -128 44 -198 44 l-65 0 35 -36 34
-36 -35 5 c-87 12 -176 -16 -299 -93 -54 -33 -73 -40 -115 -40 -33 0 -62 7
-84 20 -18 11 -34 20 -37 20 -9 0 9 -78 27 -112 l18 -38 -42 0 c-58 0 -106 15
-135 41 -12 13 -26 19 -30 16 -13 -13 16 -150 42 -200 14 -27 24 -52 22 -54
-3 -2 -25 12 -51 32 -25 19 -48 35 -51 35 -4 0 -2 -29 11 -148 6 -56 37 -156
54 -177 7 -9 7 -48 0 -126 -6 -62 -8 -143 -5 -179 2 -36 10 -122 16 -192 l11
-127 -41 -39 c-40 -38 -41 -41 -41 -105 0 -120 101 -375 184 -462 41 -44 44
-51 49 -118 5 -63 4 -72 -13 -84 -17 -12 -20 -26 -20 -100 0 -106 -12 -128
-120 -218 -124 -103 -189 -210 -163 -267 11 -23 11 -23 23 7 6 16 18 44 26 61
17 36 105 125 175 178 54 41 106 114 115 163 4 19 3 56 0 84 -6 43 -5 49 11
49 31 0 61 -28 78 -73 16 -42 15 -46 -4 -105 -12 -34 -21 -70 -21 -81 0 -11
-9 -22 -20 -26 -11 -3 -20 -11 -20 -16 0 -21 54 -28 164 -22 127 7 165 -2 186
-42 17 -32 6 -55 -25 -55 -18 0 -25 -5 -25 -20 0 -11 4 -20 8 -20 14 0 52 -40
52 -54 0 -7 -12 -30 -26 -51 -18 -27 -22 -41 -15 -48 21 -21 11 -53 -25 -85
-34 -31 -38 -52 -8 -52 26 0 14 -28 -20 -44 -60 -29 -136 -39 -252 -34 -120 6
-155 17 -291 99 -39 23 -53 27 -53 16 0 -40 144 -140 228 -158 85 -18 256 -16
324 4 71 21 128 72 128 113 1 16 7 40 15 54 8 14 14 44 15 67 0 23 4 44 9 48
5 3 12 18 16 33 l6 28 70 -23 c98 -33 205 -40 308 -19 46 9 84 16 85 14 16
-29 26 -61 29 -98 4 -44 17 -90 41 -140 6 -13 32 -37 56 -52 88 -54 347 -56
455 -3 58 28 155 110 155 131 0 21 -7 18 -99 -38 -47 -29 -108 -57 -140 -64
-110 -26 -298 -14 -363 24 -30 18 -37 42 -13 42 26 0 17 35 -15 58 -31 24 -39
59 -18 80 9 9 7 17 -9 34 -33 35 -39 72 -15 96 11 11 25 21 33 24 19 6 3 38
-20 38 -46 0 -38 61 11 86 27 14 53 16 148 12 119 -6 161 -1 167 19 2 6 -5 14
-16 18 -13 4 -21 15 -21 28 0 12 -9 47 -21 77 -13 35 -18 65 -14 86 7 40 56
94 83 94 20 0 20 -4 15 -68 -5 -58 -2 -74 17 -112 23 -46 61 -87 115 -128 72
-54 144 -136 167 -188 26 -61 44 -65 41 -9 -4 54 -46 121 -122 190 -180 166
-184 174 -151 306 12 44 24 110 27 144 5 58 10 68 49 110 77 81 172 311 182
439 6 79 -12 125 -55 145 -20 9 -24 16 -19 34 4 12 9 121 13 242 4 177 3 236
-10 302 -11 55 -14 111 -10 170 9 158 -32 284 -133 406 -59 71 -80 77 -71 21
3 -19 3 -34 -1 -34 -4 0 -24 18 -45 39 -56 56 -126 87 -298 130 -177 45 -196
52 -247 86 -20 14 -40 25 -44 25 -4 0 -4 -16 -1 -36z m-552 -854 c201 -45 285
-54 495 -54 209 0 275 7 506 54 140 29 148 28 178 -22 43 -76 56 -143 69 -363
19 -347 17 -397 -26 -575 -45 -181 -91 -286 -169 -378 l-53 -63 -45 49 c-25
27 -54 64 -65 83 -15 26 -42 45 -113 80 -92 45 -93 45 -72 64 30 27 26 69 -11
107 -17 18 -28 26 -25 18 28 -84 29 -89 16 -105 -17 -20 -28 -19 -26 2 2 25
-30 28 -91 7 -51 -18 -55 -18 -106 0 -61 21 -93 18 -91 -7 2 -21 -9 -22 -26
-2 -13 15 -9 36 17 105 3 8 -8 2 -26 -14 -22 -21 -31 -39 -31 -60 1 -34 20
-66 41 -66 12 0 -19 -16 -133 -68 -34 -15 -56 -35 -82 -74 -41 -62 -81 -108
-95 -108 -20 0 -106 109 -138 176 -18 38 -52 144 -74 235 l-41 164 1 270 c2
350 16 466 67 542 18 28 34 28 149 3z m-316 -579 l20 -28 -23 4 c-17 4 -28 -2
-40 -18 -18 -26 -21 -59 -6 -59 6 0 10 6 10 13 0 29 22 37 52 19 25 -15 28
-22 28 -69 0 -49 20 -164 36 -208 6 -18 4 -17 -19 4 -19 17 -27 20 -27 10 0
-13 13 -35 53 -92 11 -16 17 -38 15 -59 l-3 -33 -36 55 c-72 111 -139 301
-139 394 0 36 6 52 25 71 13 14 26 25 29 25 2 0 14 -13 25 -29z m1732 -3 c18
-20 20 -31 16 -89 -3 -37 -18 -102 -32 -145 -42 -123 -128 -285 -143 -270 -14
14 -1 71 21 95 48 51 66 112 21 70 -25 -23 -26 -23 -20 -3 17 54 36 163 36
205 0 35 5 51 25 69 20 19 27 21 40 10 8 -7 15 -22 15 -33 0 -16 3 -18 11 -10
16 16 3 60 -20 73 -14 7 -28 7 -48 -1 l-28 -10 29 30 c35 37 48 38 77 9z
m-976 -538 c18 -7 18 -8 -8 -15 -30 -8 -43 -2 -32 14 7 13 12 13 40 1z m194 1
c20 -13 -3 -23 -36 -15 -25 7 -25 8 -8 15 26 10 28 10 44 0z m-8 -208 c28 -5
30 -7 14 -14 -29 -11 -271 -11 -259 0 5 5 20 11 34 14 41 7 175 7 211 0z
m-326 -100 c16 -31 46 -75 67 -97 44 -45 45 -60 6 -89 -41 -30 -102 -28 -135
6 -26 26 -28 33 -28 111 0 68 4 88 19 105 11 12 24 21 31 21 6 0 25 -26 40
-57z m525 15 c26 -57 26 -133 0 -176 -26 -42 -61 -55 -108 -42 -79 22 -92 56
-46 116 17 21 44 63 60 92 37 69 66 72 94 10z m-390 -103 c19 -7 30 -14 23
-14 -6 -1 -18 -3 -26 -6 -7 -3 -25 3 -38 14 -28 24 -12 26 41 6z m210 0 c-7
-9 -28 -15 -49 -14 l-36 1 35 13 c50 19 66 19 50 0z m-679 -109 c5 -12 -39
-18 -46 -6 -3 5 -1 19 5 31 11 20 12 20 25 2 7 -10 14 -22 16 -27z"/>
<path d="M1201 1955 c-98 -18 -107 -29 -46 -56 47 -21 57 -21 185 -13 74 4
172 8 218 9 102 0 108 18 17 51 -50 19 -81 22 -180 22 -66 0 -153 -6 -194 -13z"/>
<path d="M2119 1960 c-25 -4 -60 -15 -77 -24 -17 -9 -37 -16 -45 -16 -17 0
-42 -28 -33 -37 3 -3 25 -5 48 -4 24 1 122 3 218 4 165 2 177 3 218 26 23 14
42 28 42 32 0 23 -264 37 -371 19z"/>
<path d="M1297 1769 c-37 -5 -80 -15 -95 -23 -32 -16 -80 -66 -65 -66 6 0 16
7 23 15 7 8 17 15 23 15 5 0 -2 -10 -17 -21 -29 -23 -26 -33 14 -44 18 -4 21
-4 11 4 -13 8 -13 12 -1 26 13 15 62 45 75 45 3 0 5 -6 5 -14 0 -8 12 -17 28
-19 26 -4 26 -4 4 -12 -27 -9 -24 -26 9 -42 30 -16 71 -16 103 -2 27 13 52 60
42 84 -8 21 6 19 40 -7 49 -38 55 -53 23 -63 -11 -4 -18 -9 -16 -12 8 -7 87
17 87 27 0 4 -21 27 -47 50 -49 43 -32 44 27 1 l35 -25 -30 33 c-54 61 -113
71 -278 50z"/>
<path d="M2075 1761 c-16 -10 -41 -31 -55 -46 l-25 -29 30 21 c63 43 78 44 33
4 -27 -24 -48 -47 -48 -51 0 -5 17 -14 38 -19 51 -15 62 -13 30 5 -16 8 -28
17 -28 19 0 7 81 65 91 65 4 0 5 -9 2 -20 -5 -17 0 -20 26 -20 19 0 30 -4 26
-10 -3 -5 -15 -10 -25 -10 -28 0 -15 -26 21 -40 63 -26 139 10 139 66 0 13 2
24 5 24 13 0 62 -30 75 -45 12 -14 12 -18 -1 -26 -10 -8 -7 -8 11 -4 40 11 43
21 14 44 -15 11 -22 21 -17 21 6 0 16 -7 23 -15 7 -8 17 -15 23 -15 15 0 -33
49 -64 65 -29 16 -166 35 -244 35 -31 0 -61 -7 -80 -19z"/>
</g>
</svg>
